# xmcd
#
# Track frame offsets:
#	150
#	20941
#	39637
#	54960
#	72861
#	88329
#	108610
#	129416
#	148159
#	163492
#	181231
#	196708
#
# Disc length: 2893 seconds
#
# Revision: 0
# Processed by: cddbd v1.5.2PL0 Copyright (c) Steve Scherf et al.
# Submitted via: audiograbber 1.83.01
#
DISCID=b20b4b0c
DTITLE=Various Artist - CB20083 Hot Hits Vol. 83
DYEAR=1900
DGENRE=Country
TTITLE0=Alan Jackson - Another Good Reason Not To Drink (Vocal)
TTITLE1=Doug Stone - Make Up In Love (Vocal)
TTITLE2=Ricochet - Seven Bridges Road (Vocal)
TTITLE3=Billy Ray Cyrus - Give My Heart To You (Vocal)
TTITLE4=Kenny Rogers - The Greatest (Vocal)
TTITLE5=Kenny Chesney with Randy Travis - Baptism (Vocal)
TTITLE6=Alan Jackson - Another Good Reason Not To Drink
TTITLE7=Doug Stone - Make Up In Love
TTITLE8=Ricochet - Seven Bridges Road
TTITLE9=Billy Ray Cyrus - Give My Heart To You
TTITLE10=Kenny Rogers - The Greatest
TTITLE11=Kenny Chesney with Randy Travis - Baptism
EXTD=
EXTT0=
EXTT1=
EXTT2=
EXTT3=
EXTT4=
EXTT5=
EXTT6=
EXTT7=
EXTT8=
EXTT9=
EXTT10=
EXTT11=
PLAYORDER=
